<svg width="16" height="14" viewBox="0 0 16 14" fill="none" xmlns="http://www.w3.org/2000/svg">
<path d="M7.57301 13.0292C5.69574 13.0292 4.00938 12.1701 2.91165 10.8179H1.73438C2.95937 12.727 5.12301 13.9997 7.57301 13.9997C10.023 13.9997 12.1866 12.727 13.4276 10.8179H12.2503C11.1366 12.1701 9.45028 13.0292 7.57301 13.0292Z" fill="white"/>
<path d="M3.72289 2.35455C4.77289 1.49545 6.10925 0.970455 7.57289 0.970455C9.03652 0.970455 10.3729 1.49545 11.4229 2.35455C11.7411 2.21136 12.107 2.13182 12.4729 2.13182C12.5047 2.13182 12.5524 2.13182 12.5843 2.13182C11.3115 0.827273 9.54561 0 7.57289 0C5.60016 0 3.83425 0.811364 2.56152 2.11591C2.59334 2.11591 2.64107 2.11591 2.67289 2.11591C3.05471 2.11591 3.40471 2.21136 3.72289 2.35455Z" fill="white"/>
<path d="M2.67294 6.26824C3.54794 6.26824 4.26385 5.55234 4.26385 4.67734C4.26385 3.80234 3.54794 3.08643 2.67294 3.08643C1.79794 3.08643 1.08203 3.80234 1.08203 4.67734C1.08203 5.55234 1.79794 6.26824 2.67294 6.26824Z" fill="white"/>
<path d="M4.07273 9.70486C4.07273 8.86167 4.39091 8.08213 4.9 7.49349C4.67727 7.1594 4.375 6.87304 4.025 6.68213C3.64318 6.95258 3.16591 7.09577 2.65682 7.09577C2.14773 7.09577 1.68636 6.93667 1.28864 6.68213C0.525 7.11167 0 7.93895 0 8.87758V9.21167C0 9.56167 0.286364 9.84804 0.636364 9.84804H4.07273V9.70486Z" fill="white"/>
<path d="M10.8818 4.67734C10.8818 5.55234 11.5977 6.26824 12.4727 6.26824C13.3477 6.26824 14.0637 5.55234 14.0637 4.67734C14.0637 3.80234 13.3477 3.08643 12.4727 3.08643C11.5977 3.08643 10.8818 3.80234 10.8818 4.67734Z" fill="white"/>
<path d="M13.8409 6.69775C13.4431 6.96821 12.9818 7.11139 12.4727 7.11139C11.9636 7.11139 11.5022 6.9523 11.1045 6.69775C10.7545 6.88866 10.4522 7.17503 10.2295 7.50912C10.7545 8.08185 11.0727 8.86139 11.0727 9.70457V9.86366H14.4931C14.8431 9.86366 15.1295 9.5773 15.1295 9.2273V8.89321C15.1295 7.93866 14.6045 7.1273 13.8409 6.69775Z" fill="white"/>
<path d="M7.57333 7.09539C8.44833 7.09539 9.16424 6.37948 9.16424 5.50448C9.16424 4.62948 8.44833 3.91357 7.57333 3.91357C6.69833 3.91357 5.98242 4.62948 5.98242 5.50448C5.98242 6.37948 6.69833 7.09539 7.57333 7.09539Z" fill="white"/>
<path d="M4.91602 9.70473V10.0388C4.91602 10.3888 5.20238 10.6752 5.55238 10.6752H9.57738C9.92738 10.6752 10.2137 10.3888 10.2137 10.0388V9.70473C10.2137 8.7661 9.68874 7.93882 8.92511 7.50928C8.52738 7.77973 8.06602 7.92291 7.55693 7.92291C7.04783 7.92291 6.58647 7.76382 6.18874 7.50928C5.44102 7.93882 4.91602 8.7661 4.91602 9.70473Z" fill="white"/>
</svg>
