<svg width="15" height="15" viewBox="0 0 15 15" fill="none" xmlns="http://www.w3.org/2000/svg">
<path d="M14.7342 5.60156L7.84412 0.117882C7.64467 -0.0392939 7.35456 -0.0392939 7.15511 0.117882L0.265037 5.60156C-0.260785 6.02069 0.0474554 6.8415 0.736463 6.8415H1.498V13.4429C1.498 14.124 2.06008 14.6653 2.76722 14.6653H5.14248C5.45072 14.6653 5.68644 14.4383 5.68644 14.1414V10.6486C5.68644 10.3518 5.92215 10.1247 6.23039 10.1247H8.76884C9.07708 10.1247 9.31279 10.3518 9.31279 10.6486V14.1414C9.31279 14.4383 9.5485 14.6653 9.85675 14.6653H12.2501C12.9573 14.6653 13.5194 14.124 13.5194 13.4429V6.8415H14.2809C14.9518 6.8415 15.26 6.02069 14.7342 5.60156Z" fill="white"/>
</svg>
